<svg xmlns="http://www.w3.org/2000/svg" viewBox="0 0 1200 760" width="1200" height="760"><rect x="0" y="0" width="1200" height="760" rx="18" ry="18" fill="#f1f3f7"/><rect x="0" y="0" width="1200" height="760" rx="18" ry="18" fill="#ffffff"/><rect x="0" y="0" width="1200" height="52" rx="18" ry="18" fill="#eef0f4"/><rect x="0" y="26" width="1200" height="26" rx="0" ry="0" fill="#eef0f4"/><circle cx="26" cy="26" r="6" fill="#f0a8a0"/><circle cx="48" cy="26" r="6" fill="#f4d29a"/><circle cx="70" cy="26" r="6" fill="#a8d8a8"/><rect x="96" y="14" width="1070" height="24" rx="12" ry="12" fill="#ffffff" stroke="#e6e8ee" stroke-width="1"/><text x="112" y="30" font-family="Inter,Segoe UI,Arial,sans-serif" font-size="13" font-weight="500" fill="#9aa3b2" text-anchor="start">app.example.com/my/billing</text><rect x="0" y="52" width="1200" height="1" rx="0" ry="0" fill="#e6e8ee"/><rect x="0" y="53" width="210" height="707" rx="0" ry="0" fill="#f6f7f9"/><rect x="1" y="53" width="1" height="707" rx="0" ry="0" fill="#e6e8ee"/><rect x="22" y="79" width="120" height="16" rx="5" ry="5" fill="#203c86"/><rect x="22" y="125" width="18" height="18" rx="5" ry="5" fill="#203c86"/><rect x="50" y="128" width="110" height="12" rx="6" ry="6" fill="#203c86"/><rect x="22" y="171" width="18" height="18" rx="5" ry="5" fill="#dfe3ea"/><rect x="50" y="174" width="110" height="12" rx="6" ry="6" fill="#dfe3ea"/><rect x="22" y="217" width="18" height="18" rx="5" ry="5" fill="#dfe3ea"/><rect x="50" y="220" width="110" height="12" rx="6" ry="6" fill="#dfe3ea"/><rect x="22" y="263" width="18" height="18" rx="5" ry="5" fill="#dfe3ea"/><rect x="50" y="266" width="110" height="12" rx="6" ry="6" fill="#dfe3ea"/><rect x="22" y="309" width="18" height="18" rx="5" ry="5" fill="#dfe3ea"/><rect x="50" y="312" width="110" height="12" rx="6" ry="6" fill="#dfe3ea"/><text x="240" y="90" font-family="Inter,Segoe UI,Arial,sans-serif" font-size="22" font-weight="700" fill="#1f2430" text-anchor="start">Billing</text><rect x="240" y="110" width="330" height="86" rx="12" ry="12" fill="#ffffff" stroke="#e6e8ee" stroke-width="1"/><rect x="260" y="140" width="110" height="10" rx="5" ry="5" fill="#eef0f4"/><text x="260" y="178" font-family="Inter,Segoe UI,Arial,sans-serif" font-size="22" font-weight="800" fill="#d97706" text-anchor="start">$120</text><rect x="590" y="110" width="330" height="86" rx="12" ry="12" fill="#ffffff" stroke="#e6e8ee" stroke-width="1"/><rect x="610" y="140" width="110" height="10" rx="5" ry="5" fill="#eef0f4"/><text x="610" y="178" font-family="Inter,Segoe UI,Arial,sans-serif" font-size="22" font-weight="800" fill="#16a34a" text-anchor="start">$2,340</text><rect x="240" y="216" width="690" height="460" rx="12" ry="12" fill="#ffffff" stroke="#e6e8ee" stroke-width="1"/><rect x="240" y="216" width="690" height="44" rx="12" ry="12" fill="#f6f7f9"/><text x="264" y="244" font-family="Inter,Segoe UI,Arial,sans-serif" font-size="12" font-weight="600" fill="#6b7280" text-anchor="start">Invoice</text><text x="800" y="244" font-family="Inter,Segoe UI,Arial,sans-serif" font-size="12" font-weight="600" fill="#6b7280" text-anchor="start">Status</text><rect x="264" y="294" width="160" height="13" rx="5" ry="5" fill="#dfe3ea"/><rect x="264" y="314" width="90" height="9" rx="5" ry="5" fill="#eef0f4"/><rect x="780" y="284" width="96" height="24" rx="12" ry="12" fill="#e8f5ec"/><text x="828" y="300" font-family="Inter,Segoe UI,Arial,sans-serif" font-size="10" font-weight="700" fill="#16a34a" text-anchor="middle">paid</text><rect x="264" y="332" width="662" height="1" rx="0" ry="0" fill="#e6e8ee"/><rect x="264" y="368" width="160" height="13" rx="5" ry="5" fill="#dfe3ea"/><rect x="264" y="388" width="90" height="9" rx="5" ry="5" fill="#eef0f4"/><rect x="780" y="358" width="96" height="24" rx="12" ry="12" fill="#fdf3e7"/><text x="828" y="374" font-family="Inter,Segoe UI,Arial,sans-serif" font-size="10" font-weight="700" fill="#d97706" text-anchor="middle">open</text><rect x="264" y="406" width="662" height="1" rx="0" ry="0" fill="#e6e8ee"/><rect x="264" y="442" width="160" height="13" rx="5" ry="5" fill="#dfe3ea"/><rect x="264" y="462" width="90" height="9" rx="5" ry="5" fill="#eef0f4"/><rect x="780" y="432" width="96" height="24" rx="12" ry="12" fill="#e8f5ec"/><text x="828" y="448" font-family="Inter,Segoe UI,Arial,sans-serif" font-size="10" font-weight="700" fill="#16a34a" text-anchor="middle">paid</text><rect x="264" y="480" width="662" height="1" rx="0" ry="0" fill="#e6e8ee"/><rect x="264" y="516" width="160" height="13" rx="5" ry="5" fill="#dfe3ea"/><rect x="264" y="536" width="90" height="9" rx="5" ry="5" fill="#eef0f4"/><rect x="780" y="506" width="96" height="24" rx="12" ry="12" fill="#fdeaea"/><text x="828" y="522" font-family="Inter,Segoe UI,Arial,sans-serif" font-size="10" font-weight="700" fill="#dc2626" text-anchor="middle">overdue</text><rect x="264" y="554" width="662" height="1" rx="0" ry="0" fill="#e6e8ee"/><rect x="264" y="590" width="160" height="13" rx="5" ry="5" fill="#dfe3ea"/><rect x="264" y="610" width="90" height="9" rx="5" ry="5" fill="#eef0f4"/><rect x="780" y="580" width="96" height="24" rx="12" ry="12" fill="#e8f5ec"/><text x="828" y="596" font-family="Inter,Segoe UI,Arial,sans-serif" font-size="10" font-weight="700" fill="#16a34a" text-anchor="middle">paid</text></svg>