<svg xmlns="http://www.w3.org/2000/svg" viewBox="0 0 1200 760" width="1200" height="760"><rect x="0" y="0" width="1200" height="760" rx="18" ry="18" fill="#f1f3f7"/><rect x="0" y="0" width="1200" height="760" rx="18" ry="18" fill="#ffffff"/><rect x="0" y="0" width="1200" height="52" rx="18" ry="18" fill="#eef0f4"/><rect x="0" y="26" width="1200" height="26" rx="0" ry="0" fill="#eef0f4"/><circle cx="26" cy="26" r="6" fill="#f0a8a0"/><circle cx="48" cy="26" r="6" fill="#f4d29a"/><circle cx="70" cy="26" r="6" fill="#a8d8a8"/><rect x="96" y="14" width="1070" height="24" rx="12" ry="12" fill="#ffffff" stroke="#e6e8ee" stroke-width="1"/><text x="112" y="30" font-family="Inter,Segoe UI,Arial,sans-serif" font-size="13" font-weight="500" fill="#9aa3b2" text-anchor="start">app.example.com/my/instances/1</text><rect x="0" y="52" width="1200" height="1" rx="0" ry="0" fill="#e6e8ee"/><rect x="0" y="53" width="210" height="707" rx="0" ry="0" fill="#f6f7f9"/><rect x="1" y="53" width="1" height="707" rx="0" ry="0" fill="#e6e8ee"/><rect x="22" y="79" width="120" height="16" rx="5" ry="5" fill="#203c86"/><rect x="22" y="125" width="18" height="18" rx="5" ry="5" fill="#203c86"/><rect x="50" y="128" width="110" height="12" rx="6" ry="6" fill="#203c86"/><rect x="22" y="171" width="18" height="18" rx="5" ry="5" fill="#dfe3ea"/><rect x="50" y="174" width="110" height="12" rx="6" ry="6" fill="#dfe3ea"/><rect x="22" y="217" width="18" height="18" rx="5" ry="5" fill="#dfe3ea"/><rect x="50" y="220" width="110" height="12" rx="6" ry="6" fill="#dfe3ea"/><rect x="22" y="263" width="18" height="18" rx="5" ry="5" fill="#dfe3ea"/><rect x="50" y="266" width="110" height="12" rx="6" ry="6" fill="#dfe3ea"/><rect x="22" y="309" width="18" height="18" rx="5" ry="5" fill="#dfe3ea"/><rect x="50" y="312" width="110" height="12" rx="6" ry="6" fill="#dfe3ea"/><text x="240" y="90" font-family="Inter,Segoe UI,Arial,sans-serif" font-size="20" font-weight="700" fill="#1f2430" text-anchor="start">acme.example.com</text><rect x="800" y="72" width="60" height="26" rx="8" ry="8" fill="#fbfcfd" stroke="#e6e8ee" stroke-width="1"/><rect x="868" y="72" width="60" height="26" rx="8" ry="8" fill="#fbfcfd" stroke="#e6e8ee" stroke-width="1"/><rect x="240" y="110" width="210" height="110" rx="12" ry="12" fill="#ffffff" stroke="#e6e8ee" stroke-width="1"/><text x="258" y="138" font-family="Inter,Segoe UI,Arial,sans-serif" font-size="12" font-weight="500" fill="#6b7280" text-anchor="start">CPU</text><text x="418" y="138" font-family="Inter,Segoe UI,Arial,sans-serif" font-size="13" font-weight="700" fill="#1f2430" text-anchor="end">40%</text><rect x="258" y="158" width="174" height="8" rx="4" ry="4" fill="#eef0f4"/><rect x="258" y="158" width="69" height="8" rx="4" ry="4" fill="#203c86"/><rect x="470" y="110" width="210" height="110" rx="12" ry="12" fill="#ffffff" stroke="#e6e8ee" stroke-width="1"/><text x="488" y="138" font-family="Inter,Segoe UI,Arial,sans-serif" font-size="12" font-weight="500" fill="#6b7280" text-anchor="start">Memory</text><text x="648" y="138" font-family="Inter,Segoe UI,Arial,sans-serif" font-size="13" font-weight="700" fill="#1f2430" text-anchor="end">60%</text><rect x="488" y="158" width="174" height="8" rx="4" ry="4" fill="#eef0f4"/><rect x="488" y="158" width="104" height="8" rx="4" ry="4" fill="#3b5bd0"/><rect x="700" y="110" width="210" height="110" rx="12" ry="12" fill="#ffffff" stroke="#e6e8ee" stroke-width="1"/><text x="718" y="138" font-family="Inter,Segoe UI,Arial,sans-serif" font-size="12" font-weight="500" fill="#6b7280" text-anchor="start">Storage</text><text x="878" y="138" font-family="Inter,Segoe UI,Arial,sans-serif" font-size="13" font-weight="700" fill="#1f2430" text-anchor="end">30%</text><rect x="718" y="158" width="174" height="8" rx="4" ry="4" fill="#eef0f4"/><rect x="718" y="158" width="52" height="8" rx="4" ry="4" fill="#16a34a"/><rect x="240" y="236" width="210" height="90" rx="12" ry="12" fill="#ffffff" stroke="#e6e8ee" stroke-width="1"/><rect x="258" y="266" width="80" height="11" rx="5" ry="5" fill="#dfe3ea"/><rect x="258" y="284" width="130" height="11" rx="5" ry="5" fill="#dfe3ea"/><rect x="470" y="236" width="210" height="90" rx="12" ry="12" fill="#ffffff" stroke="#e6e8ee" stroke-width="1"/><rect x="488" y="266" width="80" height="11" rx="5" ry="5" fill="#dfe3ea"/><rect x="488" y="284" width="130" height="11" rx="5" ry="5" fill="#dfe3ea"/><rect x="700" y="236" width="210" height="90" rx="12" ry="12" fill="#ffffff" stroke="#e6e8ee" stroke-width="1"/><rect x="718" y="266" width="80" height="11" rx="5" ry="5" fill="#dfe3ea"/><rect x="718" y="284" width="130" height="11" rx="5" ry="5" fill="#dfe3ea"/><rect x="240" y="342" width="690" height="340" rx="12" ry="12" fill="#ffffff" stroke="#e6e8ee" stroke-width="1"/><text x="262" y="374" font-family="Inter,Segoe UI,Arial,sans-serif" font-size="14" font-weight="600" fill="#1f2430" text-anchor="start">Recent activity</text><rect x="262" y="400" width="600" height="12" rx="5" ry="5" fill="#dfe3ea"/><rect x="262" y="444" width="600" height="12" rx="5" ry="5" fill="#dfe3ea"/><rect x="262" y="488" width="600" height="12" rx="5" ry="5" fill="#dfe3ea"/><rect x="262" y="532" width="600" height="12" rx="5" ry="5" fill="#dfe3ea"/></svg>