<svg xmlns="http://www.w3.org/2000/svg" viewBox="0 0 1200 760" width="1200" height="760"><rect x="0" y="0" width="1200" height="760" rx="18" ry="18" fill="#f1f3f7"/><rect x="0" y="0" width="1200" height="760" rx="18" ry="18" fill="#ffffff"/><rect x="0" y="0" width="1200" height="52" rx="18" ry="18" fill="#eef0f4"/><rect x="0" y="26" width="1200" height="26" rx="0" ry="0" fill="#eef0f4"/><circle cx="26" cy="26" r="6" fill="#f0a8a0"/><circle cx="48" cy="26" r="6" fill="#f4d29a"/><circle cx="70" cy="26" r="6" fill="#a8d8a8"/><rect x="96" y="14" width="1070" height="24" rx="12" ry="12" fill="#ffffff" stroke="#e6e8ee" stroke-width="1"/><text x="112" y="30" font-family="Inter,Segoe UI,Arial,sans-serif" font-size="13" font-weight="500" fill="#9aa3b2" text-anchor="start">app.example.com/my/instances/1/backups</text><rect x="0" y="52" width="1200" height="1" rx="0" ry="0" fill="#e6e8ee"/><rect x="0" y="53" width="210" height="707" rx="0" ry="0" fill="#f6f7f9"/><rect x="1" y="53" width="1" height="707" rx="0" ry="0" fill="#e6e8ee"/><rect x="22" y="79" width="120" height="16" rx="5" ry="5" fill="#203c86"/><rect x="22" y="125" width="18" height="18" rx="5" ry="5" fill="#203c86"/><rect x="50" y="128" width="110" height="12" rx="6" ry="6" fill="#203c86"/><rect x="22" y="171" width="18" height="18" rx="5" ry="5" fill="#dfe3ea"/><rect x="50" y="174" width="110" height="12" rx="6" ry="6" fill="#dfe3ea"/><rect x="22" y="217" width="18" height="18" rx="5" ry="5" fill="#dfe3ea"/><rect x="50" y="220" width="110" height="12" rx="6" ry="6" fill="#dfe3ea"/><rect x="22" y="263" width="18" height="18" rx="5" ry="5" fill="#dfe3ea"/><rect x="50" y="266" width="110" height="12" rx="6" ry="6" fill="#dfe3ea"/><rect x="22" y="309" width="18" height="18" rx="5" ry="5" fill="#dfe3ea"/><rect x="50" y="312" width="110" height="12" rx="6" ry="6" fill="#dfe3ea"/><text x="240" y="90" font-family="Inter,Segoe UI,Arial,sans-serif" font-size="22" font-weight="700" fill="#1f2430" text-anchor="start">Snapshots</text><rect x="240" y="110" width="690" height="84" rx="12" ry="12" fill="#ffffff" stroke="#e6e8ee" stroke-width="1"/><rect x="262" y="134" width="36" height="36" rx="8" ry="8" fill="#e8f5ec"/><circle cx="280" cy="152" r="9" fill="#16a34a"/><text x="316" y="142" font-family="Inter,Segoe UI,Arial,sans-serif" font-size="14" font-weight="600" fill="#1f2430" text-anchor="start">Daily snapshots are on</text><text x="316" y="166" font-family="Inter,Segoe UI,Arial,sans-serif" font-size="11" font-weight="500" fill="#9aa3b2" text-anchor="start">Billed monthly</text><rect x="840" y="128" width="70" height="30" rx="15" ry="15" fill="#e8f5ec"/><circle cx="896" cy="143" r="11" fill="#16a34a"/><rect x="240" y="214" width="690" height="76" rx="12" ry="12" fill="#ffffff" stroke="#e6e8ee" stroke-width="1"/><rect x="260" y="236" width="32" height="32" rx="7" ry="7" fill="#eef0f4"/><rect x="306" y="244" width="160" height="12" rx="5" ry="5" fill="#dfe3ea"/><rect x="306" y="262" width="90" height="9" rx="5" ry="5" fill="#eef0f4"/><rect x="800" y="236" width="110" height="32" rx="8" ry="8" fill="#fbfcfd" stroke="#e6e8ee" stroke-width="1"/><text x="855" y="257" font-family="Inter,Segoe UI,Arial,sans-serif" font-size="12" font-weight="600" fill="#203c86" text-anchor="middle">Restore</text><rect x="240" y="306" width="690" height="76" rx="12" ry="12" fill="#ffffff" stroke="#e6e8ee" stroke-width="1"/><rect x="260" y="328" width="32" height="32" rx="7" ry="7" fill="#eef0f4"/><rect x="306" y="336" width="160" height="12" rx="5" ry="5" fill="#dfe3ea"/><rect x="306" y="354" width="90" height="9" rx="5" ry="5" fill="#eef0f4"/><rect x="800" y="328" width="110" height="32" rx="8" ry="8" fill="#fbfcfd" stroke="#e6e8ee" stroke-width="1"/><text x="855" y="349" font-family="Inter,Segoe UI,Arial,sans-serif" font-size="12" font-weight="600" fill="#203c86" text-anchor="middle">Restore</text><rect x="240" y="398" width="690" height="76" rx="12" ry="12" fill="#ffffff" stroke="#e6e8ee" stroke-width="1"/><rect x="260" y="420" width="32" height="32" rx="7" ry="7" fill="#eef0f4"/><rect x="306" y="428" width="160" height="12" rx="5" ry="5" fill="#dfe3ea"/><rect x="306" y="446" width="90" height="9" rx="5" ry="5" fill="#eef0f4"/><rect x="800" y="420" width="110" height="32" rx="8" ry="8" fill="#fbfcfd" stroke="#e6e8ee" stroke-width="1"/><text x="855" y="441" font-family="Inter,Segoe UI,Arial,sans-serif" font-size="12" font-weight="600" fill="#203c86" text-anchor="middle">Restore</text><rect x="240" y="490" width="690" height="76" rx="12" ry="12" fill="#ffffff" stroke="#e6e8ee" stroke-width="1"/><rect x="260" y="512" width="32" height="32" rx="7" ry="7" fill="#eef0f4"/><rect x="306" y="520" width="160" height="12" rx="5" ry="5" fill="#dfe3ea"/><rect x="306" y="538" width="90" height="9" rx="5" ry="5" fill="#eef0f4"/><rect x="800" y="512" width="110" height="32" rx="8" ry="8" fill="#fbfcfd" stroke="#e6e8ee" stroke-width="1"/><text x="855" y="533" font-family="Inter,Segoe UI,Arial,sans-serif" font-size="12" font-weight="600" fill="#203c86" text-anchor="middle">Restore</text><rect x="240" y="582" width="690" height="76" rx="12" ry="12" fill="#ffffff" stroke="#e6e8ee" stroke-width="1"/><rect x="260" y="604" width="32" height="32" rx="7" ry="7" fill="#eef0f4"/><rect x="306" y="612" width="160" height="12" rx="5" ry="5" fill="#dfe3ea"/><rect x="306" y="630" width="90" height="9" rx="5" ry="5" fill="#eef0f4"/><rect x="800" y="604" width="110" height="32" rx="8" ry="8" fill="#fbfcfd" stroke="#e6e8ee" stroke-width="1"/><text x="855" y="625" font-family="Inter,Segoe UI,Arial,sans-serif" font-size="12" font-weight="600" fill="#203c86" text-anchor="middle">Restore</text></svg>