<svg xmlns="http://www.w3.org/2000/svg" viewBox="0 0 1200 760" width="1200" height="760"><rect x="0" y="0" width="1200" height="760" rx="18" ry="18" fill="#f1f3f7"/><rect x="0" y="0" width="1200" height="760" rx="18" ry="18" fill="#ffffff"/><rect x="0" y="0" width="1200" height="52" rx="18" ry="18" fill="#eef0f4"/><rect x="0" y="26" width="1200" height="26" rx="0" ry="0" fill="#eef0f4"/><circle cx="26" cy="26" r="6" fill="#f0a8a0"/><circle cx="48" cy="26" r="6" fill="#f4d29a"/><circle cx="70" cy="26" r="6" fill="#a8d8a8"/><rect x="96" y="14" width="1070" height="24" rx="12" ry="12" fill="#ffffff" stroke="#e6e8ee" stroke-width="1"/><text x="112" y="30" font-family="Inter,Segoe UI,Arial,sans-serif" font-size="13" font-weight="500" fill="#9aa3b2" text-anchor="start">app.example.com/hosting/configure</text><rect x="0" y="52" width="1200" height="1" rx="0" ry="0" fill="#e6e8ee"/><text x="60" y="96" font-family="Inter,Segoe UI,Arial,sans-serif" font-size="22" font-weight="700" fill="#1f2430" text-anchor="start">Configure your instance</text><rect x="60" y="120" width="560" height="560" rx="12" ry="12" fill="#ffffff" stroke="#e6e8ee" stroke-width="1"/><text x="88" y="150" font-family="Inter,Segoe UI,Arial,sans-serif" font-size="12" font-weight="500" fill="#6b7280" text-anchor="start">Subdomain</text><rect x="88" y="162" width="504" height="38" rx="8" ry="8" fill="#fbfcfd" stroke="#e6e8ee" stroke-width="1"/><text x="88" y="220" font-family="Inter,Segoe UI,Arial,sans-serif" font-size="12" font-weight="500" fill="#6b7280" text-anchor="start">Odoo version</text><rect x="88" y="232" width="504" height="38" rx="8" ry="8" fill="#fbfcfd" stroke="#e6e8ee" stroke-width="1"/><text x="88" y="290" font-family="Inter,Segoe UI,Arial,sans-serif" font-size="12" font-weight="500" fill="#6b7280" text-anchor="start">Region</text><rect x="88" y="302" width="504" height="38" rx="8" ry="8" fill="#fbfcfd" stroke="#e6e8ee" stroke-width="1"/><text x="88" y="380" font-family="Inter,Segoe UI,Arial,sans-serif" font-size="12" font-weight="500" fill="#6b7280" text-anchor="start">Workers</text><rect x="88" y="402" width="504" height="6" rx="3" ry="3" fill="#eef0f4"/><rect x="88" y="402" width="220" height="6" rx="3" ry="3" fill="#203c86"/><circle cx="308" cy="405" r="9" fill="#203c86"/><text x="88" y="466" font-family="Inter,Segoe UI,Arial,sans-serif" font-size="12" font-weight="500" fill="#6b7280" text-anchor="start">Storage</text><rect x="88" y="488" width="504" height="6" rx="3" ry="3" fill="#eef0f4"/><rect x="88" y="488" width="340" height="6" rx="3" ry="3" fill="#203c86"/><circle cx="428" cy="491" r="9" fill="#203c86"/><rect x="88" y="560" width="200" height="40" rx="8" ry="8" fill="#fbfcfd" stroke="#e6e8ee" stroke-width="1"/><rect x="310" y="560" width="140" height="40" rx="8" ry="8" fill="#203c86"/><rect x="660" y="120" width="480" height="560" rx="12" ry="12" fill="#ffffff" stroke="#e6e8ee" stroke-width="1"/><text x="688" y="160" font-family="Inter,Segoe UI,Arial,sans-serif" font-size="15" font-weight="600" fill="#1f2430" text-anchor="start">Summary</text><rect x="688" y="190" width="300" height="11" rx="5" ry="5" fill="#dfe3ea"/><rect x="688" y="220" width="260" height="11" rx="5" ry="5" fill="#dfe3ea"/><rect x="688" y="250" width="320" height="11" rx="5" ry="5" fill="#dfe3ea"/><rect x="688" y="280" width="240" height="11" rx="5" ry="5" fill="#dfe3ea"/><text x="688" y="360" font-family="Inter,Segoe UI,Arial,sans-serif" font-size="30" font-weight="800" fill="#203c86" text-anchor="start">$48</text><text x="756" y="360" font-family="Inter,Segoe UI,Arial,sans-serif" font-size="14" font-weight="500" fill="#9aa3b2" text-anchor="start">/mo</text><rect x="688" y="540" width="424" height="34" rx="8" ry="8" fill="#203c86"/><text x="900.0" y="562" font-family="Inter,Segoe UI,Arial,sans-serif" font-size="13" font-weight="600" fill="#ffffff" text-anchor="middle">Continue to checkout</text></svg>