<svg xmlns="http://www.w3.org/2000/svg" viewBox="0 0 1200 760" width="1200" height="760"><rect x="0" y="0" width="1200" height="760" rx="18" ry="18" fill="#f1f3f7"/><rect x="0" y="0" width="1200" height="760" rx="18" ry="18" fill="#ffffff"/><rect x="0" y="0" width="1200" height="52" rx="18" ry="18" fill="#eef0f4"/><rect x="0" y="26" width="1200" height="26" rx="0" ry="0" fill="#eef0f4"/><circle cx="26" cy="26" r="6" fill="#f0a8a0"/><circle cx="48" cy="26" r="6" fill="#f4d29a"/><circle cx="70" cy="26" r="6" fill="#a8d8a8"/><rect x="96" y="14" width="1070" height="24" rx="12" ry="12" fill="#ffffff" stroke="#e6e8ee" stroke-width="1"/><text x="112" y="30" font-family="Inter,Segoe UI,Arial,sans-serif" font-size="13" font-weight="500" fill="#9aa3b2" text-anchor="start">app.example.com/my</text><rect x="0" y="52" width="1200" height="1" rx="0" ry="0" fill="#e6e8ee"/><rect x="0" y="53" width="210" height="707" rx="0" ry="0" fill="#f6f7f9"/><rect x="1" y="53" width="1" height="707" rx="0" ry="0" fill="#e6e8ee"/><rect x="22" y="79" width="120" height="16" rx="5" ry="5" fill="#203c86"/><rect x="22" y="125" width="18" height="18" rx="5" ry="5" fill="#203c86"/><rect x="50" y="128" width="110" height="12" rx="6" ry="6" fill="#203c86"/><rect x="22" y="171" width="18" height="18" rx="5" ry="5" fill="#dfe3ea"/><rect x="50" y="174" width="110" height="12" rx="6" ry="6" fill="#dfe3ea"/><rect x="22" y="217" width="18" height="18" rx="5" ry="5" fill="#dfe3ea"/><rect x="50" y="220" width="110" height="12" rx="6" ry="6" fill="#dfe3ea"/><rect x="22" y="263" width="18" height="18" rx="5" ry="5" fill="#dfe3ea"/><rect x="50" y="266" width="110" height="12" rx="6" ry="6" fill="#dfe3ea"/><rect x="22" y="309" width="18" height="18" rx="5" ry="5" fill="#dfe3ea"/><rect x="50" y="312" width="110" height="12" rx="6" ry="6" fill="#dfe3ea"/><text x="240" y="90" font-family="Inter,Segoe UI,Arial,sans-serif" font-size="22" font-weight="700" fill="#1f2430" text-anchor="start">Dashboard</text><rect x="240" y="110" width="210" height="90" rx="12" ry="12" fill="#ffffff" stroke="#e6e8ee" stroke-width="1"/><rect x="258" y="128" width="28" height="28" rx="7" ry="7" fill="#203c86"/><rect x="258" y="172" width="120" height="11" rx="5" ry="5" fill="#dfe3ea"/><rect x="258" y="188" width="70" height="11" rx="5" ry="5" fill="#dfe3ea"/><rect x="470" y="110" width="210" height="90" rx="12" ry="12" fill="#ffffff" stroke="#e6e8ee" stroke-width="1"/><rect x="488" y="128" width="28" height="28" rx="7" ry="7" fill="#eef0f4"/><rect x="488" y="172" width="120" height="11" rx="5" ry="5" fill="#dfe3ea"/><rect x="488" y="188" width="70" height="11" rx="5" ry="5" fill="#dfe3ea"/><rect x="700" y="110" width="210" height="90" rx="12" ry="12" fill="#ffffff" stroke="#e6e8ee" stroke-width="1"/><rect x="718" y="128" width="28" height="28" rx="7" ry="7" fill="#eef0f4"/><rect x="718" y="172" width="120" height="11" rx="5" ry="5" fill="#dfe3ea"/><rect x="718" y="188" width="70" height="11" rx="5" ry="5" fill="#dfe3ea"/><rect x="930" y="110" width="210" height="90" rx="12" ry="12" fill="#ffffff" stroke="#e6e8ee" stroke-width="1"/><rect x="948" y="128" width="28" height="28" rx="7" ry="7" fill="#eef0f4"/><rect x="948" y="172" width="120" height="11" rx="5" ry="5" fill="#dfe3ea"/><rect x="948" y="188" width="70" height="11" rx="5" ry="5" fill="#dfe3ea"/><rect x="240" y="220" width="690" height="470" rx="12" ry="12" fill="#ffffff" stroke="#e6e8ee" stroke-width="1"/><text x="262" y="252" font-family="Inter,Segoe UI,Arial,sans-serif" font-size="15" font-weight="600" fill="#1f2430" text-anchor="start">Your instances</text><rect x="262" y="276" width="40" height="40" rx="8" ry="8" fill="#eef0f4"/><rect x="314" y="290" width="180" height="12" rx="5" ry="5" fill="#dfe3ea"/><rect x="314" y="310" width="120" height="9" rx="5" ry="5" fill="#eef0f4"/><rect x="800" y="286" width="90" height="22" rx="11" ry="11" fill="#e8f5ec"/><text x="845" y="301" font-family="Inter,Segoe UI,Arial,sans-serif" font-size="10" font-weight="600" fill="#16a34a" text-anchor="middle">running</text><rect x="262" y="354" width="40" height="40" rx="8" ry="8" fill="#eef0f4"/><rect x="314" y="368" width="180" height="12" rx="5" ry="5" fill="#dfe3ea"/><rect x="314" y="388" width="120" height="9" rx="5" ry="5" fill="#eef0f4"/><rect x="800" y="364" width="90" height="22" rx="11" ry="11" fill="#e8f5ec"/><text x="845" y="379" font-family="Inter,Segoe UI,Arial,sans-serif" font-size="10" font-weight="600" fill="#16a34a" text-anchor="middle">running</text><rect x="262" y="432" width="40" height="40" rx="8" ry="8" fill="#eef0f4"/><rect x="314" y="446" width="180" height="12" rx="5" ry="5" fill="#dfe3ea"/><rect x="314" y="466" width="120" height="9" rx="5" ry="5" fill="#eef0f4"/><rect x="800" y="442" width="90" height="22" rx="11" ry="11" fill="#e8f5ec"/><text x="845" y="457" font-family="Inter,Segoe UI,Arial,sans-serif" font-size="10" font-weight="600" fill="#16a34a" text-anchor="middle">running</text><rect x="262" y="510" width="40" height="40" rx="8" ry="8" fill="#eef0f4"/><rect x="314" y="524" width="180" height="12" rx="5" ry="5" fill="#dfe3ea"/><rect x="314" y="544" width="120" height="9" rx="5" ry="5" fill="#eef0f4"/><rect x="800" y="520" width="90" height="22" rx="11" ry="11" fill="#e8f5ec"/><text x="845" y="535" font-family="Inter,Segoe UI,Arial,sans-serif" font-size="10" font-weight="600" fill="#16a34a" text-anchor="middle">running</text><rect x="262" y="588" width="40" height="40" rx="8" ry="8" fill="#eef0f4"/><rect x="314" y="602" width="180" height="12" rx="5" ry="5" fill="#dfe3ea"/><rect x="314" y="622" width="120" height="9" rx="5" ry="5" fill="#eef0f4"/><rect x="800" y="598" width="90" height="22" rx="11" ry="11" fill="#e8f5ec"/><text x="845" y="613" font-family="Inter,Segoe UI,Arial,sans-serif" font-size="10" font-weight="600" fill="#16a34a" text-anchor="middle">running</text></svg>