<svg xmlns="http://www.w3.org/2000/svg" viewBox="0 0 1200 760" width="1200" height="760"><rect x="0" y="0" width="1200" height="760" rx="18" ry="18" fill="#f1f3f7"/><rect x="0" y="0" width="1200" height="760" rx="18" ry="18" fill="#ffffff"/><rect x="0" y="0" width="1200" height="52" rx="18" ry="18" fill="#eef0f4"/><rect x="0" y="26" width="1200" height="26" rx="0" ry="0" fill="#eef0f4"/><circle cx="26" cy="26" r="6" fill="#f0a8a0"/><circle cx="48" cy="26" r="6" fill="#f4d29a"/><circle cx="70" cy="26" r="6" fill="#a8d8a8"/><rect x="96" y="14" width="1070" height="24" rx="12" ry="12" fill="#ffffff" stroke="#e6e8ee" stroke-width="1"/><text x="112" y="30" font-family="Inter,Segoe UI,Arial,sans-serif" font-size="13" font-weight="500" fill="#9aa3b2" text-anchor="start">app.example.com/my/instances/1/databases</text><rect x="0" y="52" width="1200" height="1" rx="0" ry="0" fill="#e6e8ee"/><rect x="0" y="53" width="210" height="707" rx="0" ry="0" fill="#f6f7f9"/><rect x="1" y="53" width="1" height="707" rx="0" ry="0" fill="#e6e8ee"/><rect x="22" y="79" width="120" height="16" rx="5" ry="5" fill="#203c86"/><rect x="22" y="125" width="18" height="18" rx="5" ry="5" fill="#203c86"/><rect x="50" y="128" width="110" height="12" rx="6" ry="6" fill="#203c86"/><rect x="22" y="171" width="18" height="18" rx="5" ry="5" fill="#dfe3ea"/><rect x="50" y="174" width="110" height="12" rx="6" ry="6" fill="#dfe3ea"/><rect x="22" y="217" width="18" height="18" rx="5" ry="5" fill="#dfe3ea"/><rect x="50" y="220" width="110" height="12" rx="6" ry="6" fill="#dfe3ea"/><rect x="22" y="263" width="18" height="18" rx="5" ry="5" fill="#dfe3ea"/><rect x="50" y="266" width="110" height="12" rx="6" ry="6" fill="#dfe3ea"/><rect x="22" y="309" width="18" height="18" rx="5" ry="5" fill="#dfe3ea"/><rect x="50" y="312" width="110" height="12" rx="6" ry="6" fill="#dfe3ea"/><text x="240" y="90" font-family="Inter,Segoe UI,Arial,sans-serif" font-size="22" font-weight="700" fill="#1f2430" text-anchor="start">Databases</text><rect x="800" y="66" width="130" height="34" rx="8" ry="8" fill="#203c86"/><text x="865.0" y="88" font-family="Inter,Segoe UI,Arial,sans-serif" font-size="13" font-weight="600" fill="#ffffff" text-anchor="middle">Create database</text><rect x="240" y="110" width="690" height="560" rx="12" ry="12" fill="#ffffff" stroke="#e6e8ee" stroke-width="1"/><rect x="240" y="110" width="690" height="44" rx="12" ry="12" fill="#f6f7f9"/><text x="264" y="138" font-family="Inter,Segoe UI,Arial,sans-serif" font-size="12" font-weight="600" fill="#6b7280" text-anchor="start">Name</text><text x="540" y="138" font-family="Inter,Segoe UI,Arial,sans-serif" font-size="12" font-weight="600" fill="#6b7280" text-anchor="start">Admin</text><text x="760" y="138" font-family="Inter,Segoe UI,Arial,sans-serif" font-size="12" font-weight="600" fill="#6b7280" text-anchor="start">Status</text><rect x="264" y="188" width="150" height="13" rx="5" ry="5" fill="#dfe3ea"/><rect x="540" y="188" width="90" height="11" rx="5" ry="5" fill="#eef0f4"/><rect x="740" y="176" width="86" height="22" rx="11" ry="11" fill="#e8f5ec"/><text x="783" y="191" font-family="Inter,Segoe UI,Arial,sans-serif" font-size="10" font-weight="600" fill="#16a34a" text-anchor="middle">active</text><circle cx="890" cy="186" r="3" fill="#dfe3ea"/><circle cx="900" cy="186" r="3" fill="#dfe3ea"/><circle cx="910" cy="186" r="3" fill="#dfe3ea"/><rect x="264" y="222" width="662" height="1" rx="0" ry="0" fill="#e6e8ee"/><rect x="264" y="260" width="150" height="13" rx="5" ry="5" fill="#dfe3ea"/><rect x="540" y="260" width="90" height="11" rx="5" ry="5" fill="#eef0f4"/><rect x="740" y="248" width="86" height="22" rx="11" ry="11" fill="#e8f5ec"/><text x="783" y="263" font-family="Inter,Segoe UI,Arial,sans-serif" font-size="10" font-weight="600" fill="#16a34a" text-anchor="middle">active</text><circle cx="890" cy="258" r="3" fill="#dfe3ea"/><circle cx="900" cy="258" r="3" fill="#dfe3ea"/><circle cx="910" cy="258" r="3" fill="#dfe3ea"/><rect x="264" y="294" width="662" height="1" rx="0" ry="0" fill="#e6e8ee"/><rect x="264" y="332" width="150" height="13" rx="5" ry="5" fill="#dfe3ea"/><rect x="540" y="332" width="90" height="11" rx="5" ry="5" fill="#eef0f4"/><rect x="740" y="320" width="86" height="22" rx="11" ry="11" fill="#e8f5ec"/><text x="783" y="335" font-family="Inter,Segoe UI,Arial,sans-serif" font-size="10" font-weight="600" fill="#16a34a" text-anchor="middle">active</text><circle cx="890" cy="330" r="3" fill="#dfe3ea"/><circle cx="900" cy="330" r="3" fill="#dfe3ea"/><circle cx="910" cy="330" r="3" fill="#dfe3ea"/><rect x="264" y="366" width="662" height="1" rx="0" ry="0" fill="#e6e8ee"/><rect x="264" y="404" width="150" height="13" rx="5" ry="5" fill="#dfe3ea"/><rect x="540" y="404" width="90" height="11" rx="5" ry="5" fill="#eef0f4"/><rect x="740" y="392" width="86" height="22" rx="11" ry="11" fill="#e8f5ec"/><text x="783" y="407" font-family="Inter,Segoe UI,Arial,sans-serif" font-size="10" font-weight="600" fill="#16a34a" text-anchor="middle">active</text><circle cx="890" cy="402" r="3" fill="#dfe3ea"/><circle cx="900" cy="402" r="3" fill="#dfe3ea"/><circle cx="910" cy="402" r="3" fill="#dfe3ea"/><rect x="264" y="438" width="662" height="1" rx="0" ry="0" fill="#e6e8ee"/><rect x="264" y="476" width="150" height="13" rx="5" ry="5" fill="#dfe3ea"/><rect x="540" y="476" width="90" height="11" rx="5" ry="5" fill="#eef0f4"/><rect x="740" y="464" width="86" height="22" rx="11" ry="11" fill="#e8f5ec"/><text x="783" y="479" font-family="Inter,Segoe UI,Arial,sans-serif" font-size="10" font-weight="600" fill="#16a34a" text-anchor="middle">active</text><circle cx="890" cy="474" r="3" fill="#dfe3ea"/><circle cx="900" cy="474" r="3" fill="#dfe3ea"/><circle cx="910" cy="474" r="3" fill="#dfe3ea"/></svg>