<svg xmlns="http://www.w3.org/2000/svg" viewBox="0 0 1200 760" width="1200" height="760"><rect x="0" y="0" width="1200" height="760" rx="18" ry="18" fill="#f1f3f7"/><rect x="0" y="0" width="1200" height="760" rx="18" ry="18" fill="#ffffff"/><rect x="0" y="0" width="1200" height="52" rx="18" ry="18" fill="#eef0f4"/><rect x="0" y="26" width="1200" height="26" rx="0" ry="0" fill="#eef0f4"/><circle cx="26" cy="26" r="6" fill="#f0a8a0"/><circle cx="48" cy="26" r="6" fill="#f4d29a"/><circle cx="70" cy="26" r="6" fill="#a8d8a8"/><rect x="96" y="14" width="1070" height="24" rx="12" ry="12" fill="#ffffff" stroke="#e6e8ee" stroke-width="1"/><text x="112" y="30" font-family="Inter,Segoe UI,Arial,sans-serif" font-size="13" font-weight="500" fill="#9aa3b2" text-anchor="start">app.example.com/register</text><rect x="0" y="52" width="1200" height="1" rx="0" ry="0" fill="#e6e8ee"/><rect x="340.0" y="120" width="520" height="540" rx="12" ry="12" fill="#ffffff" stroke="#e6e8ee" stroke-width="1"/><text x="600.0" y="176" font-family="Inter,Segoe UI,Arial,sans-serif" font-size="20" font-weight="700" fill="#1f2430" text-anchor="middle">Create your account</text><text x="380.0" y="220" font-family="Inter,Segoe UI,Arial,sans-serif" font-size="12" font-weight="500" fill="#6b7280" text-anchor="start">Full name</text><rect x="380.0" y="232" width="440" height="40" rx="8" ry="8" fill="#fbfcfd" stroke="#e6e8ee" stroke-width="1"/><text x="380.0" y="298" font-family="Inter,Segoe UI,Arial,sans-serif" font-size="12" font-weight="500" fill="#6b7280" text-anchor="start">Work email</text><rect x="380.0" y="310" width="440" height="40" rx="8" ry="8" fill="#fbfcfd" stroke="#e6e8ee" stroke-width="1"/><text x="380.0" y="376" font-family="Inter,Segoe UI,Arial,sans-serif" font-size="12" font-weight="500" fill="#6b7280" text-anchor="start">Phone</text><rect x="380.0" y="388" width="440" height="40" rx="8" ry="8" fill="#fbfcfd" stroke="#e6e8ee" stroke-width="1"/><text x="380.0" y="454" font-family="Inter,Segoe UI,Arial,sans-serif" font-size="12" font-weight="500" fill="#6b7280" text-anchor="start">Password</text><rect x="380.0" y="466" width="440" height="40" rx="8" ry="8" fill="#fbfcfd" stroke="#e6e8ee" stroke-width="1"/><rect x="380.0" y="538" width="440" height="34" rx="8" ry="8" fill="#203c86"/><text x="600.0" y="560" font-family="Inter,Segoe UI,Arial,sans-serif" font-size="13" font-weight="600" fill="#ffffff" text-anchor="middle">Continue</text></svg>